<svg xmlns="http://www.w3.org/2000/svg" viewBox="0 0 47 47"><defs></defs><title>policy</title><g id="Layer_2" data-name="Layer 2"><g id="Layer_1-2" data-name="Layer 1"><polygon fill="currentColor" points="44.17 0 37 7.27 33.83 4.05 31 6.92 37 13 47 2.87 44.17 0"></polygon><path id="Fill-2" fill="currentColor" d="M37.21,25.56V17.75L18.6,8,0,17.75v19.5L18.6,47,30,41a16.31,16.31,0,0,0,2.06,2.55A16,16,0,0,0,37.21,47a16.15,16.15,0,0,0,5.15-3.42A15.77,15.77,0,0,0,47,32.4V27.5a25.47,25.47,0,0,0-9.79-1.94Zm-20.57,16L3.92,34.9V19.8l12.73,6.67v15.1ZM8.41,17.75,18.6,12.41l10.2,5.34L18.6,23.09ZM28.28,37.52l-7.72,4V26.47L33.29,19.8v6.08a25.66,25.66,0,0,0-5.87,1.62v4.91a15.75,15.75,0,0,0,.86,5.11Zm14.8-5.11a11.79,11.79,0,0,1-3.5,8.41,12,12,0,0,1-2.37,1.83,11.93,11.93,0,0,1-5.88-10.24V30.26a21.69,21.69,0,0,1,5.89-.81,21.42,21.42,0,0,1,5.86.81Z"></path></g></g></svg>