<svg xmlns="http://www.w3.org/2000/svg" width="17.213" height="15.928" viewBox="0 0 17.213 15.928">
    <g id="Group_2" data-name="Group 2" transform="translate(5.704 12.9)">
        <g id="Group_1" data-name="Group 1">
            <path id="Path_1" d="M171.17 402.828a1.514 1.514 0 1 0 1.514 1.514 1.516 1.516 0 0 0-1.514-1.514zm0 2.182a.669.669 0 1 1 .669-.669.669.669 0 0 1-.669.669z" fill="currentColor" data-name="Path 1" transform="translate(-169.656 -402.828)"></path>
        </g>
    </g>
    <g id="Group_4" data-name="Group 4" transform="translate(11.014 12.9)">
        <g id="Group_3" data-name="Group 3">
            <path id="Path_2" d="M329.115 402.828a1.514 1.514 0 1 0 1.514 1.514 1.516 1.516 0 0 0-1.514-1.514zm0 2.182a.669.669 0 1 1 .669-.669.669.669 0 0 1-.669.669z" fill="currentColor" data-name="Path 2" transform="translate(-327.601 -402.828)"></path>
        </g>
    </g>
    <g id="Group_10" data-name="Group 10">
        <g id="Group_9" data-name="Group 9">
            <path id="Path_5" d="M17.022 22.161a.842.842 0 0 0-.655-.311H3.2l-.266-1.291a.846.846 0 0 0-.491-.6l-1.852-.81a.423.423 0 0 0-.337.775l1.855.805 2.045 9.926a.848.848 0 0 0 .828.675h10.125a.423.423 0 1 0 0-.845H4.982l-.249-1.207h10.452a.848.848 0 0 0 .828-.675l1.187-5.738a.842.842 0 0 0-.178-.704zm-1.837 6.272H4.559l-1.182-5.738h12.99z" fill="currentColor" data-name="Path 5" transform="translate(0 -19.114)"></path>
        </g>
    </g>
</svg>