<svg style="height: 100%" viewBox="0 0 500 500" fill="none" xmlns="http://www.w3.org/2000/svg"><rect x="6.5" y="11.5" width="487" height="487" rx="8.5" stroke="#000" stroke-width="3"></rect><path d="M63 208.373c.255-3.061.51-6.122.765-9.438 1.786-23.722 8.163-45.914 19.386-66.575 19.896-36.732 49.23-62.75 86.471-79.33 16.836-7.397 34.691-11.988 52.802-14.029h1.785v52.036l-11.479 2.296c-31.629 7.652-57.137 24.742-75.757 52.291-11.479 16.835-18.111 35.71-19.641 56.372-2.551 33.67 7.652 63.004 29.079 88.257 18.875 21.936 42.853 35.2 70.656 41.067 1.786.255 3.571.765 5.612 1.02 1.785 0 1.785 1.021 1.785 2.296v50.25a662.57 662.57 0 01-11.478-1.53c-23.722-3.826-45.914-11.988-66.575-24.997-35.711-22.447-61.474-53.822-74.993-95.145-4.847-14.794-7.398-30.099-7.908-45.659 0-.765-.255-1.53-.255-2.295-.255-2.296-.255-4.592-.255-6.887zM258.89 385.141v-4.337-118.356-48.975-2.296c.51.511 1.02.766 1.275 1.021 45.404 44.128 91.063 88.257 136.466 132.641 13.52 13.009 26.784 26.018 40.303 39.027.51.51.765.765 1.02 1.275h-77.033l-.511-.51c-15.304-14.54-30.609-28.824-45.914-43.364-.255-.255-.51-.51-1.02-.765V383.1c0 .766 0 1.275-.255 2.041H258.89zM260.189 91.036V39c2.806.255 5.612.51 8.418 1.02 37.752 5.612 70.912 21.427 99.225 48.21 23.978 22.957 40.558 50.506 48.72 83.411 8.418 34.18 6.122 67.595-6.122 100.5-3.316 8.928-7.397 17.346-12.243 25.508-.255.51-.51 1.02-1.021 1.531-3.826-3.572-7.397-7.143-10.968-10.714-9.183-8.928-18.11-17.6-27.293-26.528-1.021-.765-1.021-1.53-.51-2.806 15.049-36.221 13.519-71.677-5.612-105.602-17.856-31.375-44.639-50.505-78.564-59.433-5.102-1.53-9.438-2.296-14.03-3.06zM101.778 472.636v1.276H79.841v-1.276h1.275c1.275 0 2.296-.255 2.806-.765.51-.256 1.02-.766 1.275-1.786.255-.51.256-2.04.256-4.336v-31.375c0-2.551 0-4.081-.256-4.591-.255-.51-.765-1.02-1.275-1.531-.765-.51-1.53-.765-2.806-.765h-1.275v-1.276h21.937v1.276h-1.276c-1.275 0-2.296.255-2.806.765-.51.256-1.02.766-1.275 1.786-.255.51-.255 2.04-.255 4.336v31.375c0 2.551 0 4.081.255 4.591.255.51.765 1.02 1.275 1.531.765.51 1.53.765 2.806.765h1.276zM133.407 474.419c1.02 3.061 2.296 5.357 4.336 7.143 2.041 1.785 4.592 2.295 7.398 2.295.765 0 1.785 0 2.55-.255v2.041c-3.061.765-5.866 1.275-8.417 1.275-3.826 0-7.142-1.02-10.203-3.316-3.061-2.041-5.357-5.357-6.887-9.438-5.102-1.275-9.183-4.081-12.244-8.417-3.061-4.336-4.591-9.693-4.591-15.815 0-7.142 2.04-13.009 6.377-17.856 4.081-4.846 9.437-7.142 15.814-7.142 6.377 0 11.734 2.296 15.815 7.142 4.081 4.847 6.122 10.714 6.122 17.856 0 6.122-1.53 11.479-4.846 16.07-2.551 4.592-6.632 7.397-11.224 8.417zm-5.356-46.678c-3.572 0-6.633 2.295-8.673 6.631-1.786 3.571-2.551 8.928-2.551 15.815 0 8.162 1.275 14.285 3.826 18.111 1.786 2.806 4.082 4.081 7.398 4.081 3.06 0 5.611-1.275 7.397-4.081 2.551-3.826 3.826-9.694 3.826-17.346 0-7.652-.765-13.264-2.296-16.58-2.295-4.336-5.101-6.631-8.927-6.631zM194.371 425.19v16.58h-1.276c-1.02-4.337-2.551-7.653-5.102-9.949-2.55-2.296-5.356-3.571-8.417-3.571-2.551 0-5.102.766-7.142 2.551-2.296 1.786-3.826 3.826-4.847 6.632a34.307 34.307 0 00-2.04 11.734c0 4.336.51 8.162 1.53 11.733 1.02 3.571 2.296 6.122 4.336 7.908 2.041 1.785 4.592 2.805 7.908 2.805 2.551 0 5.101-.765 7.142-2.04 2.296-1.275 4.591-3.571 6.887-6.887v4.081c-2.296 2.806-4.846 4.847-7.397 6.122-2.551 1.275-5.612 1.786-8.928 1.786-4.336 0-8.417-1.021-11.989-3.062-3.571-2.04-6.121-4.846-7.907-8.672-1.785-3.827-2.806-7.907-2.806-12.244 0-4.591 1.021-8.928 3.061-13.009 2.041-4.081 4.847-7.142 8.418-9.438 3.571-2.295 7.397-3.316 11.223-3.316 3.061 0 6.122.765 9.183 2.296 1.785.765 3.061 1.276 3.571 1.276.765 0 1.276-.255 1.786-.765.51-.511.765-1.531 1.02-2.551h1.786zM239.761 473.91h-24.488v-.766c7.653-10.203 11.989-17.091 13.775-20.662 1.53-3.571 2.295-6.886 2.295-10.457 0-2.551-.765-4.592-2.04-6.123-1.276-1.53-3.061-2.55-4.847-2.55-3.061 0-5.611 1.786-7.397 5.357l-1.02-.511c1.02-4.591 2.805-7.907 5.101-9.948 2.296-2.04 4.847-3.316 7.908-3.316 2.04 0 4.081.511 5.867 1.786 1.785 1.02 3.061 2.551 4.081 4.591 1.02 2.041 1.53 3.826 1.53 5.612 0 3.061-.765 6.377-2.296 9.438-2.04 4.336-6.632 10.458-13.519 18.11h8.928c2.296 0 3.571.001 4.336-.254.766-.256 1.276-.511 1.531-1.021.51-.51 1.02-1.53 1.785-3.061h1.021l-2.551 13.775zM274.726 425.19v1.02c-3.826 1.02-6.632 2.551-8.928 4.082-2.295 1.785-4.081 3.826-5.356 6.122-1.276 2.551-2.296 5.356-3.061 8.927 1.02-.765 1.53-1.275 2.296-1.275 1.275-.51 2.55-.765 4.081-.765 3.061 0 5.612 1.275 7.907 3.826 2.041 2.551 3.061 6.122 3.061 10.713 0 3.061-.51 6.122-1.786 8.673-1.02 2.551-2.805 4.591-4.846 6.122-2.04 1.53-4.336 2.041-6.632 2.041-2.551 0-4.846-.766-7.142-2.296-2.296-1.531-3.826-4.082-5.102-7.143-1.275-3.061-1.785-6.377-1.785-10.203 0-5.357 1.02-10.203 3.316-14.794 2.295-4.591 5.357-8.162 9.693-10.968 4.081-2.551 8.927-4.082 14.284-4.082zm-17.6 23.213c-.255 3.316-.255 5.611-.255 7.142 0 3.316.255 6.377.765 9.437.51 3.061 1.275 5.102 2.296 6.377.765.766 1.53 1.276 2.295 1.276 1.02 0 1.786-.511 2.551-1.786.765-1.276 1.02-3.826 1.02-7.652 0-6.377-.765-10.969-2.04-13.519-.766-1.531-2.041-2.296-3.571-2.296-.766 0-1.786.255-3.061 1.021zM285.94 449.932v-1.276c2.296-.765 4.081-1.53 4.847-2.04 1.02-.765 1.785-1.785 2.295-3.061.765-1.275 1.02-2.806 1.02-4.081 0-2.041-.51-3.571-1.785-5.102-1.275-1.275-2.806-2.04-4.592-2.04-2.805 0-5.356 1.785-7.397 5.101l-1.02-.51c1.53-3.826 3.316-6.887 5.612-8.928 2.295-2.04 4.846-3.061 7.652-3.061s5.357 1.021 7.142 3.061c1.786 2.041 2.806 4.336 2.806 7.142 0 1.786-.51 3.572-1.275 5.102-.766 1.531-2.296 3.061-4.081 4.336 2.295 1.275 4.336 3.061 5.611 4.847 1.276 2.04 1.786 4.336 1.786 7.397 0 4.847-1.531 9.183-4.847 12.754-3.061 3.571-7.397 5.102-12.754 5.102-3.571 0-6.122-.766-7.652-2.041-1.276-1.021-1.786-2.04-1.786-3.571 0-1.02.255-2.041 1.021-2.806.765-.765 1.53-1.021 2.296-1.021.765 0 1.275.256 1.785.511.255.255 1.53 1.275 3.571 3.061 2.041 1.785 3.826 2.805 5.612 2.805 1.53 0 2.805-.765 3.826-2.04 1.02-1.275 1.531-3.061 1.531-5.102 0-3.316-1.021-6.121-3.062-8.927-1.53-2.551-4.336-4.591-8.162-5.612zM319.364 474.93l11.479-39.281h-8.673c-3.316 0-5.867.51-7.652 1.53-1.275.766-2.296 2.041-3.061 4.082h-1.275l3.06-14.795h24.743l-14.029 48.72h-4.592v-.256zM347.665 463.196c1.53 0 2.551.511 3.571 1.786 1.02 1.02 1.53 2.551 1.53 4.081 0 1.531-.51 3.061-1.53 4.082-1.02 1.02-2.296 1.785-3.571 1.785-1.531 0-2.551-.51-3.571-1.785-1.02-1.021-1.531-2.551-1.531-4.082 0-1.53.511-3.061 1.531-4.081.765-1.275 2.04-1.786 3.571-1.786zM381.601 473.91h-24.488v-.766c7.653-10.203 11.989-17.091 13.775-20.662 1.53-3.571 2.295-6.886 2.295-10.457 0-2.551-.765-4.592-2.04-6.123-1.276-1.53-3.061-2.55-4.847-2.55-3.061 0-5.611 1.786-7.397 5.357l-1.021-.511c1.021-4.591 2.807-7.907 5.102-9.948 2.296-2.04 4.847-3.316 7.908-3.316 2.04 0 4.081.511 5.866 1.786 1.786 1.02 3.061 2.551 4.082 4.591 1.02 2.041 1.53 3.826 1.53 5.612 0 3.061-.765 6.377-2.295 9.438-2.041 4.336-6.632 10.458-13.52 18.11h8.928c2.296 0 3.571.001 4.336-.254.765-.256 1.276-.511 1.531-1.021.51-.51 1.02-1.53 1.785-3.061h1.02l-2.55 13.775zM407.364 425.19v39.027c0 2.806 0 4.847.255 5.612.255.765.766 1.53 1.531 2.04.765.51 1.785.766 3.315.766h1.021v1.275h-21.937v-1.275h1.02c1.786 0 3.062-.256 3.827-.766.765-.51 1.275-1.02 1.53-2.04.255-.765.511-2.806.511-5.612v-24.742c0-2.296-.001-3.571-.256-4.082-.255-.51-.51-1.02-1.02-1.53s-1.02-.511-1.786-.511c-1.02 0-2.295.256-3.826 1.021l-.51-1.275 15.305-7.908h1.02z" fill="#070000"></path></svg>