<svg height="512" viewBox="0 0 100 100" width="512" xmlns="http://www.w3.org/2000/svg">
                                <path d="M40.437 55.166c-.314 0-6.901.002-9.939-.001-1.564-.001-2.122-.563-2.122-2.137a9807.51 9807.51 0 010-12.129c.001-1.554.591-2.147 2.135-2.148 3.038-.002 9.589-.001 9.926-.001v-8.802c.002-3.974.711-7.778 2.73-11.261 2.067-3.565 5.075-6.007 8.93-7.419 2.469-.905 5.032-1.266 7.652-1.268 3.278-.002 6.556.001 9.835.007 1.409.002 2.034.625 2.037 2.044.006 3.803.006 7.606 0 11.408-.002 1.434-.601 2.01-2.042 2.026-2.687.029-5.376.011-8.06.119-2.711 0-4.137 1.324-4.137 4.13-.065 2.968-.027 5.939-.027 9.015.254 0 7.969-.001 11.575 0 1.638 0 2.198.563 2.198 2.21 0 4.021-.001 8.043-.004 12.064-.001 1.623-.527 2.141-2.175 2.142-3.606.002-11.291.001-11.627.001v32.545c0 1.735-.546 2.288-2.258 2.288H42.541c-1.513 0-2.103-.588-2.103-2.101l-.001-32.732z" fill="#3d6ad6"></path>
                            </svg>