<svg viewBox="0 0 512 512"><path fill="currentColor" d="M37.628 142.311c-4.983-2.38-10.953-.271-13.334 4.713l-.688 1.461c-2.322 5.01-.141 10.954 4.87 13.277 1.361.631 2.79.929 4.197.929 3.775 0 7.389-2.147 9.08-5.798l.588-1.248c2.381-4.983.271-10.953-4.713-13.334z"></path><path fill="currentColor" d="M437.02 74.98C388.667 26.629 324.38 0 256 0c-41.101 0-80.358 9.447-116.684 28.08-34.643 17.77-65.29 43.698-88.631 74.983-3.302 4.427-2.391 10.692 2.036 13.995 4.426 3.301 10.691 2.392 13.995-2.036 4.911-6.582 10.122-12.839 15.579-18.798 16.865 15.225 37.655 24.741 60 27.567-11.297 36.65-17.708 78.473-18.557 122.209H20.227c.535-12.763 2.074-25.46 4.629-37.866 1.113-5.409-2.368-10.697-7.778-11.812-5.399-1.11-10.697 2.368-11.812 7.777C1.771 221.067 0 238.529 0 256c0 68.38 26.629 132.667 74.98 181.02C123.333 485.371 187.62 512 256 512s132.667-26.629 181.02-74.98C485.371 388.667 512 324.38 512 256s-26.629-132.667-74.98-181.02zM96.442 82.018c28.179-26.005 61.923-44.498 98.728-54.192-12.773 12.599-24.467 29.301-34.65 49.772-4.205 8.452-8.067 17.398-11.591 26.757-19.519-1.586-37.772-9.343-52.487-22.337zM20.227 266h103.512c.85 43.749 7.264 85.584 18.567 122.242-22.159 2.89-43.22 12.5-59.904 27.453C45.792 375.929 22.641 323.602 20.227 266zm76.349 163.85c14.569-12.742 33.073-20.583 52.352-22.209 3.523 9.36 7.388 18.308 11.593 26.762 10.13 20.365 21.754 37.005 34.451 49.58-37.204-9.969-70.811-28.816-98.396-54.133zM246 491.026c-25.042-4.822-48.732-27.656-67.573-65.531-2.893-5.815-5.614-11.884-8.167-18.177H246v83.708zm0-103.708h-83.022C151.28 351.436 144.622 309.801 143.741 266H246v121.318zM246 246H143.741c.881-43.801 7.539-85.436 19.237-121.318H246V246zm0-141.319h-75.74c2.553-6.292 5.274-12.362 8.167-18.177C197.268 48.63 220.958 25.795 246 20.973v83.708zM491.773 246H388.261c-.85-43.749-7.264-85.584-18.567-122.242 22.159-2.89 43.22-12.5 59.903-27.453 36.61 39.766 59.762 92.093 62.176 149.695zM415.424 82.15c-14.569 12.742-33.073 20.583-52.352 22.209-3.523-9.36-7.388-18.308-11.593-26.762-10.13-20.365-21.754-37.005-34.451-49.58 37.204 9.969 70.811 28.816 98.396 54.133zM266 20.973c25.042 4.822 48.732 27.656 67.573 65.531 2.893 5.815 5.614 11.884 8.167 18.177H266V20.973zm0 103.709h83.022c11.698 35.882 18.355 77.517 19.236 121.318H266V124.682zm0 366.334v-83.697h75.729c-8.19 20.265-17.983 37.711-29.023 51.508-10.441 13.047-26.503 28.243-46.706 32.189zm50.792-6.969c18.202-17.926 34.076-43.927 46.274-76.401 19.459 1.579 37.657 9.293 52.348 22.213-27.642 25.366-61.329 44.238-98.622 54.188zm112.812-68.359c-16.852-15.177-37.61-24.663-59.917-27.481 1.687-5.484 3.279-11.116 4.766-16.899 1.376-5.349-1.845-10.8-7.194-12.175-5.346-1.377-10.8 1.846-12.175 7.194-1.858 7.226-3.893 14.229-6.089 20.991H266V266h102.253c-.121 5.952-.338 11.895-.672 17.758-.315 5.514 3.9 10.238 9.414 10.553 5.534.337 10.239-3.9 10.553-9.414.356-6.239.585-12.564.709-18.896h103.517c-2.415 57.598-25.564 109.921-62.17 149.687z"></path><path fill="currentColor" d="M375.2 312.596c-5.464-.754-10.515 3.076-11.266 8.549l-.112.804c-.771 5.469 3.036 10.527 8.505 11.3.475.066.944.099 1.41.099 4.903 0 9.185-3.609 9.89-8.604l.122-.882c.75-5.472-3.077-10.516-8.549-11.266z"></path></svg>