<svg height="512" width="512" viewBox="0 0 512 512" xmlns="http://www.w3.org/2000/svg">
                            <switch>
                                <g>
                                    <path fill="currentColor" d="M487.5 146.5c-20.9-44.3-54-81.5-95.7-107.6-58-36.2-126.7-47.7-193.3-32.3C131.9 21.9 75.2 62.3 39 120.3 2.7 178.3-8.8 246.9 6.6 313.6s55.8 123.3 113.7 159.5c40.8 25.5 87.6 39 135.5 39h3.1c47.7-.6 94.1-14.4 134.3-39.8 11.7-7.4 15.1-22.8 7.7-34.5s-22.8-15.1-34.5-7.7c-32.3 20.5-69.7 31.6-108.1 32.1-39.4.5-77.9-10.4-111.5-31.3-96.3-60.4-125.7-187.8-65.4-284.1 29.2-46.7 74.8-79.2 128.4-91.5 53.6-12.4 108.8-3.1 155.5 26.1 33.6 21 60.2 50.9 77 86.5 16.4 34.7 22.8 73.2 18.5 111.2-1.5 13.7 8.3 26.1 22.1 27.6 13.7 1.5 26.1-8.3 27.6-22.1 5.3-47.2-2.7-95-23-138.1z"></path>
                                    <path fill="currentColor" d="M211.9 151.2c-9.8-9.8-25.6-9.8-35.4 0-13.6 13.6-22 31.7-23.5 51s4 38.5 15.4 54c26 35.3 57.1 66.4 92.4 92.4 13.9 10.2 30.6 15.7 47.7 15.7 2.1 0 4.2-.1 6.3-.2 19.2-1.5 37.3-9.8 51-23.5 9.8-9.8 9.8-25.6 0-35.4s-25.6-9.8-35.4 0c-10.7 10.7-27.9 12.1-40 3.2-31.2-23-58.7-50.5-81.7-81.7-8.9-12.1-7.6-29.3 3.2-40 9.8-9.9 9.8-25.8 0-35.5z"></path>
                                </g>
                            </switch>
                        </svg>