<svg xmlns="http://www.w3.org/2000/svg" width="10.017" height="10.017" viewBox="0 0 10.017 10.017">
    <defs>
        <style>
            .cls-1{fill:#bfbfbf}
        </style>
    </defs>
    <g id="time">
        <g id="Group_2131" data-name="Group 2131">
            <path id="Path_718" d="M5.008 0a5.008 5.008 0 1 0 5.008 5.008A5.014 5.014 0 0 0 5.008 0zm0 8.951a3.943 3.943 0 1 1 3.943-3.943 3.947 3.947 0 0 1-3.943 3.943z" class="cls-1" data-name="Path 718"/>
            <path id="Path_719" d="M47.142 19.949h-2.251v-2.707a.412.412 0 1 0-.825 0v3.119a.412.412 0 0 0 .412.412h2.663a.412.412 0 0 0 0-.825z" class="cls-1" data-name="Path 719" transform="translate(-39.523 -15.095)"/>
        </g>
    </g>
</svg>
