<svg xmlns="http://www.w3.org/2000/svg" width="12.326" height="8.667" viewBox="0 0 12.326 8.667">
    <defs>
        <style>
            .cls-1{fill:#bfbfbf}
        </style>
    </defs>
    <path id="newspaper" d="M11.845 1.926H10.5V.481A.481.481 0 0 0 10.015 0H.481A.481.481 0 0 0 0 .481v6.79a1.4 1.4 0 0 0 1.4 1.4h9.53a1.4 1.4 0 0 0 1.4-1.4V2.407a.481.481 0 0 0-.485-.481zm-.481 5.345a.433.433 0 1 1-.867 0V2.889h.867zm-10.4 0V.963h8.57v6.308A1.389 1.389 0 0 0 9.6 7.7H1.4a.434.434 0 0 1-.437-.429zm7.221-5.778H2.311a.481.481 0 0 0-.481.481V3.8a.481.481 0 0 0 .481.481h5.874a.481.481 0 0 0 .482-.481V1.974a.481.481 0 0 0-.482-.481zM7.7 3.322H2.793v-.866H7.7zm.963 1.926a.481.481 0 0 1-.481.481H2.311a.481.481 0 1 1 0-.963h5.874a.481.481 0 0 1 .482.482zm0 1.444a.481.481 0 0 1-.481.481H2.311a.481.481 0 1 1 0-.963h5.874a.481.481 0 0 1 .482.483zm0 0" class="cls-1"/>
</svg>
