<svg height="512pt" viewBox="0 -34 512.0012 512" width="512pt"><path d="M270.9688 69.8438h205.5937l-6.125-56.4883C469.6133 5.7578 463.1953 0 455.5547 0h-184.586zm0 0M428.9648 172.4922l60.3633 15.0898-9.5195-87.8047h-61.75zm0 0"></path><path d="M492.7656 219.2969l-80.75-20.1875c-5.8672-1.4688-10.2734-6.3203-11.1719-12.3008l-13.0546-87.0313H124.2109l-13.0546 87.0313c-.8946 5.9805-5.3047 10.832-11.172 12.3008l-80.75 20.1875L.2618 394.2695c-1.375 12.6602 2.7188 25.3555 11.2227 34.832 8.5039 9.4727 20.6836 14.9102 33.414 14.9102h142.6758c20.7774 0 38.7188-14.1015 43.629-34.289L256 307.7773l24.7969 101.9454c4.914 20.1875 22.8515 34.289 43.6289 34.289h142.6758c12.7343 0 24.914-5.4375 33.418-14.9101 8.5038-9.4766 12.5937-22.172 11.2226-34.832zm0 0"></path><path d="M93.9453 99.7773h-61.75L22.672 187.582l60.3633-15.0898zm0 0M241.0352 69.8438V0H56.4453c-7.6406 0-14.0547 5.7578-14.8789 13.3555l-6.125 56.4883zm0 0"></path></svg>