<svg height="512pt" viewBox="0 0 512 512" width="512pt" xmlns="http://www.w3.org/2000/svg"><path fill="currentColor" d="M15 512h481.992a15 15 0 0010.606-25.605L25.605 4.402a14.993 14.993 0 00-16.343-3.25A14.997 14.997 0 000 15.008V497c0 8.285 6.715 15 15 15zm445.777-29.988h-68.785V466c0-8.281-6.715-15-15-15s-15 6.719-15 15v16.012h-30V466c0-8.281-6.715-15-15-15-8.281 0-14.996 6.719-14.996 15v16.012h-30V466c0-8.281-6.719-15-15-15-8.285 0-15 6.719-15 15v16.012h-30V466c0-8.281-6.715-15-15-15s-15 6.719-15 15v16.012h-30V466c0-8.281-6.715-15-15-15-8.281 0-15 6.719-15 15v16.012H92V466c0-8.281-6.719-15-15-15-8.285 0-15 6.719-15 15v16.012H30v-62.008h17c8.281 0 15-6.719 15-15 0-8.285-6.719-14.992-15-14.992H30v-60.008h17c8.281 0 15-6.715 15-15s-6.719-14.988-15-14.988H30v-60.012h17c8.281 0 15-6.715 15-15 0-8.281-6.719-14.988-15-14.988H30v-60.008h17c8.281 0 15-6.715 15-15s-6.719-14.988-15-14.988H30V51.223zm0 0M401.535 288.957a15.517 15.517 0 003.8 2.758c.032.015.063.035.099.05l84.851 42.426a15.004 15.004 0 0017.313-2.808 15.001 15.001 0 002.808-17.317l-42.426-84.851a15.702 15.702 0 00-2.808-3.895C449.605 209.754 261.746 21.89 253.043 13.191c-17.582-17.586-46.05-17.59-63.637 0-17.586 17.582-17.59 46.051 0 63.637zm31.82-53.031l-21.214 21.21L242.437 87.435l21.215-21.211 169.703 169.703zm4.106 38.316l12.996-12.996 12.992 25.988zM210.617 34.402c5.863-5.859 15.352-5.863 21.215 0l10.606 10.606-21.211 21.215-10.61-10.61c-5.86-5.86-5.86-15.347 0-21.21zm0 0"></path><path fill="currentColor" d="M107 420.004h172.715a15.002 15.002 0 0010.605-25.61L117.605 221.68A14.999 14.999 0 0092 232.285V405c0 8.285 6.715 15.004 15 15.004zm15-151.508l121.504 121.516H122zm0 0"></path></svg>