<svg enable-background="new 0 0 512 512" height="512" width="512" viewBox="0 0 512 512" xmlns="http://www.w3.org/2000/svg">
                                <path d="M387.302 125.987A44.708 44.708 0 00392 106c0-24.813-20.187-45-45-45s-45 20.187-45 45a44.708 44.708 0 004.698 19.987C235.134 144.019 182 208.917 182 286c0 90.981 74.019 165 165 165s165-74.019 165-165c0-77.083-53.134-141.981-124.698-160.013zM332 106c0-8.271 6.729-15 15-15s15 6.729 15 15-6.729 15-15 15-15-6.729-15-15zm30 314.162V406c0-8.284-6.716-15-15-15s-15 6.716-15 15v14.162C269.521 413.223 219.777 363.479 212.838 301H227c8.284 0 15-6.716 15-15s-6.716-15-15-15h-14.162c6.939-62.479 56.683-112.223 119.162-119.162V166c0 8.284 6.716 15 15 15s15-6.716 15-15v-14.162c62.479 6.939 112.223 56.684 119.162 119.162H467c-8.284 0-15 6.716-15 15s6.716 15 15 15h14.162C474.223 363.479 424.479 413.223 362 420.162zM137 121h-32c-8.284 0-15 6.716-15 15s6.716 15 15 15h32c8.284 0 15-6.716 15-15s-6.716-15-15-15zM137 211H75c-8.284 0-15 6.716-15 15s6.716 15 15 15h62c8.284 0 15-6.716 15-15s-6.716-15-15-15zM137 301H45c-8.284 0-15 6.716-15 15s6.716 15 15 15h92c8.284 0 15-6.716 15-15s-6.716-15-15-15zM137 391H15c-8.284 0-15 6.716-15 15s6.716 15 15 15h122c8.284 0 15-6.716 15-15s-6.716-15-15-15z"></path>
                                <path d="M407 271h-45v-45c0-8.284-6.716-15-15-15s-15 6.716-15 15v60c0 8.284 6.716 15 15 15h60c8.284 0 15-6.716 15-15s-6.716-15-15-15z"></path>
                            </svg>