<svg height="512" viewBox="0 0 52 61" width="512" xmlns="http://www.w3.org/2000/svg"><path d="M41.46 1.47A2 2 0 0039 .08L27.07 3.56c-.62-2.15-.65-2.8-1.57-3.31A2 2 0 0024 .08L8.52 4.6a2 2 0 00-1.39 2.45l7 26.23L3.54 44.35a9.306 9.306 0 0013 13.32L18 56.41a9.36 9.36 0 0013.52 1.26c6.77-5.83 9.24-8.1 14.28-11.61a12.12 12.12 0 004.77-13.31C42.4 4.07 59.2 63.94 41.46 1.47zM11.19 14.4L26.84 10l.61 2.1-15.69 4.42zm18.72-1.06L41.84 10l.61 2.1-11.93 3.4zM39.54 2l1.74 6-11.93 3.4c-.07-.23-1.8-6.21-1.72-5.94zm-15 0c.88 3-1.09-3.78 1.74 6l-15.61 4.47-1.59-6C25.2 1.8 24.44 2 24.54 2zm-8.43 30.75l-3.83-14.3L28 14l4.26 14.68c-7.19 3.79-10.2 10.83-5.5 17.86-3.39 2.56-6 4.9-10.44 8.66a28.67 28.67 0 00-10-10.81l9.31-9.71a2.05 2.05 0 00.48-1.93zm12.28 12.59c-3.87-5.85-1.48-11.34 4.45-14.71l.78 2.68a10.2 10.2 0 01-4 11.11c-.41.3-.82.58-1.23.92zM9.77 58a7.27 7.27 0 01-4.88-12.15 26.67 26.67 0 019.87 10.64A7.31 7.31 0 019.77 58zm9.72-2.87c3.27-2.76 2.49-2.17 5.8-4.87a26.87 26.87 0 014.46 6.27 7.32 7.32 0 01-10.26-1.42zm11.82.08A28.78 28.78 0 0026.85 49c1.28-1 2.59-2 3.93-2.92a12.18 12.18 0 004.76-13.3l-4.46-15.41L43 14l4.26 14.69c-7.16 3.77-10.22 10.8-5.5 17.86-3.94 2.95-5.48 4.45-10.45 8.64zm13.32-10.79c-.42.29-.83.6-1.25.9-3.83-5.8-1.51-11.31 4.46-14.69l.78 2.67a10.19 10.19 0 01-3.99 11.12z"></path></svg>