<svg xmlns="http://www.w3.org/2000/svg" viewBox="0 0 35.25 24.27"><defs></defs><title>Trunk</title><g id="Layer_2" data-name="Layer 2"><g id="Layer_1-2" data-name="Layer 1"><g id="np_shorts_3162471_000000-copy-3" data-name="np shorts 3162471 000000-copy-3"><path fill="currentColor" d="M26,24.27a60.81,60.81,0,0,1-7-.46.43.43,0,0,1-.38-.47L18.42,20H16.83v3.34c0,.19-.18.47-.37.47A59.12,59.12,0,0,1,.37,23.53c-.28,0-.37-.28-.37-.46.56-8,1.12-17,.84-22.51A.57.57,0,0,1,.93.19.47.47,0,0,1,1.3,0H33.67c.09,0,.28.09.37.09s.09.19.09.38A185,185,0,0,0,35.25,23c0,.28-.09.47-.37.47a45.11,45.11,0,0,1-8.84.83Zm-6.51-1.39a45.42,45.42,0,0,0,14.7-.37A212.45,212.45,0,0,1,33.11.84H1.77C2,6.32,1.4,14.88.93,22.6a51.21,51.21,0,0,0,15,.28V19.44a.73.73,0,0,1,.19-.37c.09-.1.19-.1.37-.1l2.51.1a.44.44,0,0,1,.47.46Z"></path><path fill="currentColor" d="M34.13,5.3H1.39V0H34.13ZM1.65,4.37H33.2V.93H1.65Z"></path><path fill="currentColor" d="M18.79,19.62l-2.51-.09c-4-.28-4.47-4.56-4.84-8.65a30.39,30.39,0,0,0-1-6V4.65c0-.09.18-.19.28-.19H24.18a.33.33,0,0,1,.28.1.34.34,0,0,1,.09.28c-.46,2.41-.55,4.65-.74,6.6-.28,4.56-.56,7.81-5,8.18ZM11.16,5.21a27.86,27.86,0,0,1,.93,5.67c.37,4.19.74,7.81,4.19,8l2.51.09c3.81-.28,4-3,4.28-7.44a54.42,54.42,0,0,1,.65-6.23H11.16Z"></path></g></g></g></svg>