<svg xmlns="http://www.w3.org/2000/svg" viewBox="0 0 512 512">
                        <path fill="currentColor" d="M89.5 137.6c-10.2 0-18.4 8.2-18.5 18.3v.2L53.8 480.5c0 10.2 8.2 18.4 18.3 18.5h367.6c10.2 0 18.4-8.2 18.5-18.3v-.1L441 156.1c.1-10.2-8.1-18.4-18.3-18.5H89.5zm18.3 36.8h296.5l17.2 287.8h-331l17.3-287.8z"></path>
                        <path fill="currentColor" d="M366.5 170.8c10.2-.1 18.3-8.4 18.2-18.6v-.2c0-78-54-137-127.5-137S127.4 73.6 127.4 152c-.2 10.1 7.8 18.6 18 18.8 10.2.2 18.6-7.8 18.8-18v-.8c0-61.9 38.1-100.3 93.1-100.3 55 0 90.7 38 90.7 100.3-.2 10.1 7.9 18.5 18 18.7.1.1.3.1.5.1z"></path>
                        <path fill="currentColor" d="M172 213.6c-7.7.1-13.9 6.4-13.8 14.1v.1c0 59.3 41.1 104.1 96.9 104.1 55.9 0 98.7-44.6 98.7-104.1.2-7.7-5.9-14.1-13.7-14.3-7.7-.2-14.1 5.9-14.3 13.7v.6c0 47-29 76.2-70.7 76.2-41.8 0-69-28.8-69-76.2.2-7.7-6-14.1-13.7-14.2h-.4z" stroke="currentColor" stroke-width="9" stroke-miterlimit="10"></path>
                    </svg>