<svg width="150" height="76" viewBox="0 0 150 76" fill="none" xmlns="http://www.w3.org/2000/svg">
    <g clip-path="url(#clip0)">
        <path d="M58.6033 7.5522L54.7326 10.3327C54.0465 9.26891 53.0195 8.71973 51.6495 8.71973C50.588 8.71973 49.6624 9.06351 48.8749 9.78349C48.0874 10.471 47.6753 11.3618 47.6753 12.4602C47.6753 13.5931 48.0874 14.5207 48.8749 15.2406C49.6624 15.9606 50.588 16.3044 51.6495 16.3044C53.0195 16.3044 54.0487 15.7552 54.7326 14.6915L58.6033 17.4373C57.0951 19.5994 54.5255 20.8707 51.6495 20.8707C49.2848 20.8707 47.2308 20.0816 45.5178 18.5011C43.8047 16.9206 42.9481 14.8969 42.9481 12.458C42.9481 10.0213 43.8047 8.03002 45.5178 6.48412C47.2308 4.93822 49.287 4.14905 51.6495 4.14905C54.4931 4.15337 57.0628 5.38793 58.6033 7.5522Z" fill="currentColor"></path>
        <path d="M71.4837 20.5291V18.7086C71.0393 19.394 70.3187 19.9108 69.3607 20.287C68.4351 20.6653 67.5786 20.8362 66.8256 20.8362C64.6681 20.8362 62.7824 20.0816 61.1383 18.5357C59.4943 16.9898 58.6722 14.966 58.6722 12.4926C58.6722 10.0192 59.4943 8.03002 61.1383 6.48412C62.7824 4.93822 64.6659 4.14905 66.8256 4.14905C68.3337 4.14905 70.3877 4.73282 71.4837 6.27656V4.49715H76.2109V20.5291H71.4837ZM71.4837 12.4948C71.4837 10.1943 69.6671 8.68514 67.6131 8.68514C66.5516 8.68514 65.626 9.06351 64.804 9.78349C64.0165 10.5035 63.6044 11.3964 63.6044 12.4948C63.6044 13.5931 64.0165 14.5207 64.804 15.2406C65.626 15.9606 66.5516 16.3044 67.6131 16.3044C69.6693 16.3066 71.4837 14.7952 71.4837 12.4948Z" fill="currentColor"></path>
        <path d="M83.3028 20.5292H78.5411V4.49722H83.3028V8.37603C84.0903 5.59557 86.0084 4.15344 87.825 4.15344C88.8866 4.15344 89.7776 4.35884 90.5651 4.73721L89.7086 9.02898C89.057 8.7198 88.235 8.549 87.277 8.549C84.6384 8.549 83.3028 10.6765 83.3028 14.9337V20.5292Z" fill="currentColor"></path>
        <path d="M105.398 17.6103C103.925 19.7724 101.493 20.8707 98.1014 20.8707C95.7368 20.8707 93.7497 20.0816 92.1402 18.5357C90.5306 16.9573 89.741 14.9315 89.741 12.458C89.741 9.98672 90.5285 7.99543 92.1402 6.44952C93.7497 4.90362 95.7368 4.14905 98.1014 4.14905C100.432 4.14905 102.384 4.93822 103.925 6.51871C105.5 8.06245 106.289 10.0883 106.289 12.5942C106.289 13.0396 106.255 13.5218 106.22 14.0709H94.5048C94.7443 15.8222 96.561 16.7498 98.4445 16.7498C99.9871 16.7498 101.15 16.2352 101.94 15.2385L105.398 17.6103ZM101.493 11.0872C101.014 7.44842 95.3268 7.41382 94.5739 11.0872H101.493Z" fill="currentColor"></path>
        <path d="M63.7749 49.724C63.7749 49.9078 63.7123 50.0743 63.5871 50.2213C63.462 50.3705 63.2959 50.444 63.0909 50.444C63.0003 50.444 62.8622 50.3986 62.6788 50.3056C62.6098 50.2602 62.2214 49.9748 61.5137 49.4473L59.0822 47.5943C58.1221 48.6473 56.9592 49.4646 55.587 50.0483C54.2148 50.6321 52.6635 50.924 50.9288 50.924C49.3538 50.924 47.9428 50.5456 46.6979 49.791C45.453 49.0365 44.4821 48.0527 43.7852 46.8398C43.0883 45.6268 42.741 44.3447 42.741 42.9955C42.741 41.5318 43.1811 40.1589 44.0592 38.8767C44.9373 37.5946 46.2232 36.6455 47.9126 36.0271C46.9309 34.3796 46.439 32.9029 46.439 31.5991C46.439 29.997 46.987 28.6976 48.083 27.703C49.1791 26.7063 50.6635 26.209 52.5362 26.209C54.0896 26.209 55.3842 26.5117 56.4241 27.1192C57.464 27.7268 58.2235 28.4986 58.7025 29.437C58.7931 29.6208 58.8384 29.757 58.8384 29.85C58.8384 29.9883 58.7694 30.1246 58.6334 30.2629C58.4953 30.3991 58.3357 30.4683 58.1545 30.4683C57.902 30.4683 57.71 30.3645 57.5719 30.1591C57.0455 29.3592 56.3961 28.73 55.6193 28.2716C54.8426 27.8133 53.8156 27.5862 52.5362 27.5862C51.0281 27.5862 49.876 27.9516 49.0755 28.6846C48.2751 29.4175 47.8759 30.4121 47.8759 31.6705C47.8759 32.678 48.2298 33.8217 48.9374 35.1039C49.6451 36.386 50.6052 37.7006 51.8156 39.0519C53.779 41.3178 56.1199 43.549 58.8384 45.7457C59.7057 44.4874 60.3336 42.9091 60.7219 41.0086C60.7672 40.8248 60.8535 40.6821 60.9787 40.5805C61.1038 40.4767 61.257 40.427 61.4404 40.427C61.6454 40.427 61.8115 40.5005 61.9366 40.6497C62.0618 40.7989 62.1135 40.987 62.0898 41.2161C61.7468 43.322 61.0154 45.1079 59.8977 46.5717C61.3821 47.7154 62.5688 48.5867 63.4599 49.1813C63.6735 49.311 63.7749 49.4948 63.7749 49.724ZM58.0207 46.7706C55.3712 44.6885 52.9267 42.3426 50.6894 39.7329C49.8889 38.84 49.205 37.9708 48.6332 37.1233C47.1488 37.5816 46.0355 38.3254 45.2933 39.3546C44.5511 40.3837 44.18 41.5405 44.18 42.8226C44.18 43.9901 44.4476 45.0885 44.9848 46.1176C45.522 47.1468 46.3031 47.977 47.3322 48.6062C48.3592 49.2354 49.5588 49.551 50.9288 49.551C53.9667 49.551 56.3313 48.6257 58.0207 46.7706Z" fill="currentColor"></path>
        <path d="M75.2185 43.9901C72.9919 43.4064 71.5183 42.4788 70.9703 41.4151C70.4568 40.3167 70.3878 39.7676 70.4223 38.7708C70.4568 37.5687 71.0739 36.5395 72.3058 35.612C73.5399 34.6845 74.979 34.2045 76.6576 34.2045C78.4742 34.2045 80.0147 34.6499 81.2834 35.5082C82.552 36.3666 83.2014 37.7049 83.2359 39.5254H78.7483C78.7137 38.5979 78.1312 38.1179 76.9316 38.1179C75.8701 38.1179 75.2185 38.5979 75.253 39.32C75.2876 39.9038 75.7665 40.2821 76.6576 40.5221L79.3632 41.2421C80.5627 41.5513 81.4862 42.0659 82.1723 42.7188C83.5768 44.0572 83.7149 44.9501 83.7149 45.9122C83.7149 47.5252 83.0288 48.7619 81.6243 49.6203C80.2542 50.4786 78.6447 50.924 76.7935 50.924C75.0459 50.924 73.4709 50.444 72.1354 49.4473C70.7999 48.4527 70.1483 47.0776 70.1138 45.3955H74.5669C74.6015 46.3576 75.663 47.2484 76.9316 47.2484C78.0276 47.2138 78.8842 46.6993 78.8842 45.9101C78.8842 45.2225 78.4397 44.8463 77.3092 44.5372L75.2185 43.9901Z" fill="currentColor"></path>
        <path d="M89.7776 50.5824H85.0159V25.8307H89.7776V37.0563C90.0861 36.1288 90.6686 35.4434 91.5942 34.9612C92.5198 34.4467 93.4109 34.2067 94.2652 34.2067C98.4099 34.2067 100.671 36.9525 100.671 41.8627V50.5824H95.9093V42.0335C95.9093 40.0768 94.5047 38.8401 92.9621 38.8401C91.2145 38.8401 89.7754 39.8692 89.7754 42.1005V50.5824H89.7776Z" fill="currentColor"></path>
        <path d="M114.648 50.5825V48.762C114.203 49.4474 113.482 49.9641 112.525 50.3403C111.599 50.7187 110.742 50.8895 109.989 50.8895C107.832 50.8895 105.946 50.1349 104.302 48.589C102.658 47.0431 101.836 45.0194 101.836 42.5459C101.836 40.0725 102.658 38.0834 104.302 36.5375C105.946 34.9916 107.83 34.2024 109.989 34.2024C111.498 34.2024 113.552 34.7862 114.648 36.3299V34.544H119.375V50.576H114.648V50.5825ZM114.648 42.5481C114.648 40.2476 112.831 38.7385 110.777 38.7385C109.715 38.7385 108.79 39.1169 107.968 39.8368C107.18 40.5568 106.768 41.4498 106.768 42.5481C106.768 43.6465 107.18 44.574 107.968 45.294C108.79 46.014 109.715 46.3577 110.777 46.3577C112.831 46.3599 114.648 44.8486 114.648 42.5481Z" fill="currentColor"></path>
        <path d="M126.467 50.5824H121.705V34.5504H126.467V38.4293C127.254 35.6488 129.172 34.2067 130.989 34.2067C132.05 34.2067 132.941 34.4121 133.729 34.7904L132.872 39.0822C132.221 38.773 131.399 38.6022 130.441 38.6022C127.802 38.6022 126.467 40.7297 126.467 44.9869V50.5824Z" fill="currentColor"></path>
        <path d="M148.562 47.6636C147.088 49.8257 144.657 50.9241 141.265 50.9241C138.9 50.9241 136.913 50.1349 135.304 48.589C133.694 47.0107 132.905 44.9848 132.905 42.5113C132.905 40.0401 133.692 38.0488 135.304 36.5029C136.913 34.957 138.9 34.2024 141.265 34.2024C143.595 34.2024 145.548 34.9916 147.088 36.5721C148.663 38.1158 149.453 40.1417 149.453 42.6476C149.453 43.093 149.419 43.5751 149.384 44.1243H137.669C137.908 45.8756 139.725 46.8031 141.608 46.8031C143.151 46.8031 144.314 46.2885 145.103 45.2918L148.562 47.6636ZM144.657 41.1406C144.178 37.5018 138.491 37.4672 137.738 41.1406H144.657Z" fill="currentColor"></path>
        <path d="M35.3557 11.7359C33.7677 12.1532 28.2142 14.4147 23.692 16.992C16.4988 21.0956 11.2171 28.6695 13.7414 37.2422C14.6109 40.1913 16.3844 42.8032 18.8721 44.6172C19.7286 45.242 20.6671 45.7955 21.6531 46.1933C23.144 46.7944 24.7427 47.0322 25.6899 48.5068C25.9531 48.9176 26.1344 49.3976 26.1171 49.8862C26.0696 51.2635 24.6457 52.1456 23.4806 52.1326C22.3328 52.1196 21.3576 51.4645 20.4341 50.8656C19.3187 50.1413 18.3197 49.2722 17.323 48.3943C17.0619 48.1652 16.8051 47.9317 16.5527 47.696C12.3973 43.8237 10.2484 38.2584 10.9668 32.6088C11.8212 25.8912 15.2409 19.2016 20.4816 14.8731C23.6791 12.2332 27.5281 10.2397 31.3103 8.58139C32.7192 7.96302 34.8098 7.03764 36.2899 7.976C37.3191 8.63328 37.6125 11.1413 35.3557 11.7359Z" fill="currentColor"></path>
        <path d="M14.5505 20.5551C14.5505 20.5551 13.1007 15.1844 9.91614 11.5218C6.73161 7.85919 4.54818 6.61598 3.33564 6.13383C1.68727 5.47655 -0.133693 6.13383 0.00870531 7.82676C0.0648014 8.49701 1.07669 9.38564 1.6657 9.71211C3.26444 10.6007 5.13287 11.1564 6.65178 12.1704C8.59573 13.4677 9.94851 15.1282 10.9086 17.0525C11.6335 18.5054 13.1266 21.355 13.0618 23.0458C13.0597 23.0458 13.1632 21.8502 14.5505 20.5551Z" fill="currentColor"></path>
        <path d="M14.0004 31.411C14.0004 31.411 17.0123 36.1784 21.0879 38.8097C25.2131 41.4734 27.8971 41.8582 29.2003 41.895C30.5034 41.9318 31.7246 41.2896 31.8907 40.4291C32.0547 39.5686 31.4204 38.2778 30.1992 37.7978C28.8766 37.2789 25.1829 37.2422 22.3803 35.746C19.5776 34.2476 15.1223 29.5624 14.6778 28.1808C14.68 28.1808 14.0845 29.1948 14.0004 31.411Z" fill="currentColor"></path>
        <path d="M16.311 13.4072C12.9366 13.0375 10.5202 9.73598 10.9236 6.0496C11.3271 2.36105 14.3994 -0.337255 17.7738 0.0346267C21.1482 0.406508 23.5647 3.70588 23.1612 7.39226C22.7578 11.0786 19.6854 13.7769 16.311 13.4072ZM17.5387 2.18376C15.3466 1.94376 13.3422 3.78371 13.0682 6.28526C12.7942 8.78682 14.3541 11.0181 16.5462 11.2581C18.7383 11.4981 20.7426 9.65814 21.0166 7.15659C21.2906 4.65504 19.7307 2.42375 17.5387 2.18376Z" fill="currentColor"></path>
    </g>
    <defs>
        <clipPath id="clip0">
            <rect width="149.453" height="52.1348" fill="white"></rect>
        </clipPath>
    </defs>
</svg>