<svg viewBox="0 0 295.526 295.526"><path d="M147.763 44.074c12.801 0 23.858-8.162 27.83-20.169-7.578 2.086-17.237 3.345-27.83 3.345-10.592 0-20.251-1.259-27.828-3.345 3.97 12.006 15.026 20.169 27.828 20.169z"></path><path d="M295.158 58.839c-.608-1.706-1.873-3.109-3.521-3.873l-56.343-26.01a272.4759 272.4759 0 00-36.524-9.611 6.7164 6.7164 0 00-1.292-.126c-3.052 0-5.785 2.107-6.465 5.197-4.502 19.82-22.047 34.659-43.251 34.659-21.203 0-38.749-14.838-43.25-34.659-.688-3.09-3.416-5.197-6.466-5.197-.426 0-.858.041-1.292.126-12.328 2.344-24.538 5.551-36.542 9.611L3.889 54.965c-1.658.764-2.932 2.167-3.511 3.873-.599 1.726-.491 3.589.353 5.217l24.46 48.272c1.145 2.291 3.474 3.666 5.938 3.666.636 0 1.281-.092 1.917-.283l27.167-8.052v161.97c0 3.678 3.001 6.678 6.689 6.678h161.723c3.678 0 6.67-3.001 6.67-6.678V107.66l27.186 8.052c.636.191 1.28.283 1.915.283 2.459 0 4.779-1.375 5.94-3.666l24.469-48.272c.824-1.629.942-3.492.353-5.218z"></path></svg>