<svg height="512pt" viewBox="0 0 512 512" width="512pt" xmlns="http://www.w3.org/2000/svg"><path d="M256 0C114.84 0 0 114.84 0 256s114.84 256 256 256 256-114.84 256-256S397.16 0 256 0zm0 482C131.383 482 30 380.617 30 256S131.383 30 256 30s226 101.383 226 226-101.383 226-226 226zm0 0"></path><path d="M330.883 186.266c10.039-10.04 23.387-15.57 37.586-15.57 14.195 0 27.543 5.53 37.594 15.577 5.859 5.856 15.355 5.852 21.21-.007 5.856-5.86 5.852-15.36-.007-21.215-15.707-15.703-36.59-24.356-58.797-24.356-22.211 0-43.094 8.653-58.801 24.356l-.008.008c-5.86 5.859-5.855 15.351.004 21.21 5.86 5.86 15.36 5.852 21.219-.003zm0 0M105.945 186.266c10.043-10.04 23.39-15.57 37.586-15.57 14.2 0 27.547 5.53 37.598 15.577 5.86 5.856 15.355 5.852 21.21-.007 5.856-5.86 5.852-15.36-.007-21.215-15.707-15.703-36.59-24.356-58.8-24.356-22.208 0-43.09 8.653-58.798 24.356l-.007.008c-5.86 5.859-5.856 15.351.003 21.21s15.36 5.852 21.215-.003zm0 0M416.668 243H95.332c-8.281 0-15 6.715-15 15 0 97.02 78.648 175.668 175.668 175.668S431.668 355.02 431.668 258c0-8.285-6.719-15-15-15zM256 403.668c-75.95 0-137.5-57.77-144.91-130.668h289.82C393.5 345.895 331.957 403.668 256 403.668zm0 0"></path></svg>