<svg width="448" height="480" viewBox="0 0 448 480" xmlns="http://www.w3.org/2000/svg"><path d="M86.168 447.787l136 32a7.99 7.99 0 003.664 0l136-32A7.998 7.998 0 00368 440v-40h40a8 8 0 007.882-6.629l32-184a8.012 8.012 0 00-.338-4.033l-48-136a7.997 7.997 0 00-5.604-5.099l-93.38-23.344-30.313-37.893A8.004 8.004 0 00264.08 0h-80.16a8.004 8.004 0 00-6.167 3.002l-30.314 37.893-93.38 23.344a7.997 7.997 0 00-5.603 5.099l-48 136a8.012 8.012 0 00-.338 4.033l32 184A8 8 0 0040 400h40v40a7.998 7.998 0 006.168 7.787zM224 43.504L201.08 16h45.84L224 43.504zM368 384v-24h37.445l-4.174 24H368zm63.76-175.31L408.228 344H368V160h-16v273.664L232 461.9V75.314l26.343 26.343a8.004 8.004 0 0012.313-1.22l28.873-43.309 86.358 21.59L431.76 208.69zM286.098 48.43l-23.341 35.013-27.934-27.934 29.05-34.86 22.225 27.78zM184.126 20.648l29.05 34.86-27.933 27.935L161.9 48.43l22.225-27.782zM62.112 78.718l86.358-21.59 28.874 43.31a7.999 7.999 0 0012.313 1.22L216 75.313V461.9L96 433.664V160H80v184H39.772L16.24 208.69 62.112 78.718zM42.554 360H80v24H46.728l-4.174-24z" fill="#000" fill-rule="nonzero"></path></svg>