<svg xmlns="http://www.w3.org/2000/svg" viewBox="0 0 43 38"><defs></defs><title>Clock</title><g id="Layer_2" data-name="Layer 2"><g id="Layer_1-2" data-name="Layer 1"><path fill="currentColor" d="M24.38,0A18.68,18.68,0,0,0,8,10h.36A5.65,5.65,0,0,1,12,11.28,14.43,14.43,0,0,1,24.38,4.17,14.7,14.7,0,0,1,38.92,19,14.72,14.72,0,0,1,24.38,33.87a14.42,14.42,0,0,1-8.26-2.61l-1.93,3.67A18.5,18.5,0,0,0,24.38,38,18.84,18.84,0,0,0,43,19,18.83,18.83,0,0,0,24.38,0Z"></path><path fill="currentColor" d="M24.07,8A2.08,2.08,0,0,0,22,10.11v8.78A2.08,2.08,0,0,0,24.07,21h6.86a2.11,2.11,0,0,0,0-4.22H26.14V10.11A2.08,2.08,0,0,0,24.07,8Z"></path><path fill="currentColor" d="M13.15,21.94l-2.89.44a.56.56,0,0,1-.63-.53V15.57a1.59,1.59,0,0,0-3-.76L.2,26.79a1.56,1.56,0,0,0,1.62,2.27l2.89-.44a.56.56,0,0,1,.63.53v6.28a1.59,1.59,0,0,0,3,.76l6.5-12a1.57,1.57,0,0,0-1.67-2.27Z"></path></g></g></svg>